<?xml version="1.0" encoding="UTF-8"?>
<svg xmlns="http://www.w3.org/2000/svg" xmlns:xlink="http://www.w3.org/1999/xlink" viewBox="0 0 30 30" width="30px" height="30px">
<g id="surface303532768">
<path style="fill-rule:nonzero;fill:rgb(0%,0%,0%);fill-opacity:1;stroke-width:10;stroke-linecap:butt;stroke-linejoin:round;stroke:rgb(80.000001%,80.000001%,80.000001%);stroke-opacity:1;stroke-miterlimit:10;" d="M 138.993967 20.548059 L 151.451946 33.006039 C 155.921603 37.49947 155.921603 44.750775 151.451946 49.220432 L 137.591255 63.057349 L 108.942656 34.40875 L 122.779573 20.548059 C 125.014401 18.31323 127.938698 17.195816 130.88677 17.195816 C 133.811067 17.195816 136.759138 18.31323 138.993967 20.548059 Z M 126.131816 74.540563 L 58.82544 141.846939 C 58.82544 141.846939 58.944314 136.236093 57.113656 134.405436 C 55.282999 132.574778 42.539722 134.262787 40.13847 131.861535 C 37.713443 129.460284 39.330128 116.621907 37.380597 114.672376 C 35.407291 112.69907 30.153066 113.174566 30.153066 113.174566 L 97.459442 45.86819 Z M 40.13847 149.074469 L 25.041491 154.376243 C 25.041491 154.400018 25.017716 154.400018 25.017716 154.400018 L 24.875067 154.447568 C 24.851292 154.471342 24.827518 154.471342 24.803743 154.471342 C 24.209374 154.685315 23.567455 154.804189 22.925536 154.804189 C 19.763491 154.804189 17.195816 152.236514 17.195816 149.074469 C 17.195816 148.432551 17.31469 147.790632 17.528663 147.196262 L 22.925536 131.861535 Z M 40.13847 149.074469 " transform="matrix(0.164302,0,0,0.164302,0.87,0.87)"/>
<path style=" stroke:none;fill-rule:nonzero;fill:rgb(0%,0%,0%);fill-opacity:1;" d="M 22.375 3.695312 C 21.890625 3.695312 21.410156 3.878906 21.042969 4.246094 L 18.769531 6.523438 L 23.476562 11.230469 L 25.753906 8.957031 C 26.488281 8.222656 26.488281 7.03125 25.753906 6.292969 L 23.707031 4.246094 C 23.339844 3.878906 22.855469 3.695312 22.375 3.695312 Z M 16.882812 8.40625 L 5.824219 19.464844 C 5.824219 19.464844 6.6875 19.386719 7.011719 19.710938 C 7.332031 20.03125 7.070312 22.140625 7.464844 22.535156 C 7.859375 22.929688 9.953125 22.652344 10.253906 22.953125 C 10.554688 23.253906 10.535156 24.175781 10.535156 24.175781 L 21.59375 13.117188 Z M 4.636719 22.535156 L 3.75 25.054688 C 3.714844 25.152344 3.695312 25.257812 3.695312 25.363281 C 3.695312 25.882812 4.117188 26.304688 4.636719 26.304688 C 4.742188 26.304688 4.847656 26.285156 4.945312 26.25 C 4.949219 26.25 4.953125 26.25 4.957031 26.246094 L 4.980469 26.238281 C 4.980469 26.238281 4.984375 26.238281 4.984375 26.234375 L 7.464844 25.363281 Z M 4.636719 22.535156 "/>
</g>
</svg>
